<svg width="28" height="30" viewBox="0 0 28 30" fill="none" xmlns="http://www.w3.org/2000/svg">
<path d="M9.33333 11.2H13.0667V14.9333H9.33333V11.2ZM14.9333 11.2H18.6667V14.9333H14.9333V11.2ZM20.5333 11.2H24.2667V14.9333H20.5333V11.2ZM3.73333 22.4H7.46667V26.1333H3.73333V22.4ZM9.33333 22.4H13.0667V26.1333H9.33333V22.4ZM14.9333 22.4H18.6667V26.1333H14.9333V22.4ZM9.33333 16.8H13.0667V20.5333H9.33333V16.8ZM14.9333 16.8H18.6667V20.5333H14.9333V16.8ZM20.5333 16.8H24.2667V20.5333H20.5333V16.8ZM3.73333 16.8H7.46667V20.5333H3.73333V16.8ZM24.2667 0V1.86667H20.5333V0H7.46667V1.86667H3.73333V0H0V29.8667H28V0H24.2667ZM26.1333 28H1.86667V7.46667H26.1333V28Z" fill="white"/>
</svg>
