<svg width="102" height="102" viewBox="0 0 102 102" fill="none" xmlns="http://www.w3.org/2000/svg">
<path d="M88.5 41H61V13.5C61 12.12 59.88 11 58.5 11H43.5C42.12 11 41 12.12 41 13.5V41H13.5C12.12 41 11 42.12 11 43.5V58.5C11 59.88 12.12 61 13.5 61H41V88.5C41 89.88 42.12 91 43.5 91H58.5C59.88 91 61 89.88 61 88.5V61H88.5C89.88 61 91 59.88 91 58.5V43.5C91 42.12 89.88 41 88.5 41Z" fill="#969696"/>
<path d="M16.3846 85.6158C-18.2261 50.9962 16.3846 16.385 16.3846 16.385C16.3846 16.385 51 -18.2313 85.6154 16.385C120.231 51.0013 85.6154 85.6158 85.6154 85.6158C85.6154 85.6158 50.9953 120.235 16.3846 85.6158Z" stroke="#969696"/>
</svg>
