<svg width="25" height="25" viewBox="0 0 25 25" fill="none" xmlns="http://www.w3.org/2000/svg">
<path d="M24.2188 9.375H15.625V0.78125C15.625 0.35 15.275 0 14.8438 0H10.1562C9.725 0 9.375 0.35 9.375 0.78125V9.375H0.78125C0.35 9.375 0 9.725 0 10.1562V14.8438C0 15.275 0.35 15.625 0.78125 15.625H9.375V24.2188C9.375 24.65 9.725 25 10.1562 25H14.8438C15.275 25 15.625 24.65 15.625 24.2188V15.625H24.2188C24.65 15.625 25 15.275 25 14.8438V10.1562C25 9.725 24.65 9.375 24.2188 9.375Z" fill="url(#paint0_linear)"/>
<defs>
<linearGradient id="paint0_linear" x1="15.4715" y1="-2.20181e-05" x2="17.4385" y2="24.846" gradientUnits="userSpaceOnUse">
<stop stop-color="#0033FF"/>
<stop offset="1" stop-color="#0064FA" stop-opacity="0.84"/>
</linearGradient>
</defs>
</svg>
