<svg width="21" height="25" viewBox="0 0 21 25" fill="none" xmlns="http://www.w3.org/2000/svg">
<path d="M1.5625 7.8125V23.4375C1.5625 24.2969 2.26562 25 3.125 25H17.1875C18.0469 25 18.75 24.2969 18.75 23.4375V7.8125H1.5625ZM6.25 21.875H4.6875V10.9375H6.25V21.875ZM9.375 21.875H7.8125V10.9375H9.375V21.875ZM12.5 21.875H10.9375V10.9375H12.5V21.875ZM15.625 21.875H14.0625V10.9375H15.625V21.875Z" fill="url(#paint0_linear)"/>
<path d="M19.1406 3.125H14.0625V1.17188C14.0625 0.528125 13.5344 0 12.8906 0H7.42188C6.77812 0 6.25 0.528125 6.25 1.17188V3.125H1.17188C0.526563 3.125 0 3.65156 0 4.29688V6.25H20.3125V4.29688C20.3125 3.65156 19.7844 3.125 19.1406 3.125ZM12.5 3.125H7.8125V1.58281H12.5V3.125Z" fill="url(#paint1_linear)"/>
<defs>
<linearGradient id="paint0_linear" x1="12.1991" y1="7.81248" x2="13.5515" y2="24.8941" gradientUnits="userSpaceOnUse">
<stop stop-color="#0033FF"/>
<stop offset="1" stop-color="#0064FA" stop-opacity="0.84"/>
</linearGradient>
<linearGradient id="paint1_linear" x1="12.5706" y1="-5.50452e-06" x2="12.7228" y2="6.24673" gradientUnits="userSpaceOnUse">
<stop stop-color="#0033FF"/>
<stop offset="1" stop-color="#0064FA" stop-opacity="0.84"/>
</linearGradient>
</defs>
</svg>
